<?xml version="1.0" standalone="no"?>
<!DOCTYPE svg PUBLIC "-//W3C//DTD SVG 20010904//EN"
 "http://www.w3.org/TR/2001/REC-SVG-20010904/DTD/svg10.dtd">
<svg version="1.0" xmlns="http://www.w3.org/2000/svg"
 width="300.000000pt" height="173.000000pt" viewBox="0 0 300.000000 173.000000"
 preserveAspectRatio="xMidYMid meet">
<metadata>
Created by potrace 1.10, written by Peter Selinger 2001-2011
</metadata>
<g transform="translate(0.000000,173.000000) scale(0.100000,-0.100000)"
fill="#000000" stroke="none">
<path d="M614 1167 c-58 -39 -77 -108 -59 -210 8 -44 23 -57 40 -33 7 9 19 14
29 10 11 -4 16 -1 16 10 0 9 -5 16 -11 16 -5 0 -7 5 -4 10 15 24 33 8 40 -37
4 -25 14 -57 23 -71 15 -24 15 -26 -12 -47 l-28 -22 51 -52 c49 -51 71 -63 71
-38 0 19 -12 31 -42 44 -54 24 -34 40 57 48 96 8 143 1 165 -25 8 -9 47 -29
85 -44 68 -26 71 -29 104 -91 27 -51 38 -62 48 -53 19 15 16 25 -12 50 -14 12
-30 38 -35 57 -6 22 -21 44 -39 56 -39 25 -59 95 -27 95 7 0 19 6 25 14 10 11
5 15 -26 19 -70 9 -197 64 -283 121 -47 31 -100 59 -118 62 -23 4 -32 11 -28
20 7 19 -4 18 -26 -3 -19 -17 -19 -16 -12 12 15 63 100 98 137 57 10 -10 17
-24 17 -30 0 -6 5 -14 11 -18 20 -12 0 48 -23 74 -28 29 -91 29 -134 -1z m58
-150 c29 -13 90 -47 135 -75 46 -29 88 -52 94 -52 10 0 108 -39 118 -47 3 -2
6 -17 7 -33 3 -38 -13 -39 -66 -4 -36 24 -49 27 -133 27 l-93 0 -17 47 c-9 26
-17 55 -17 63 0 9 -11 28 -24 44 -22 26 -26 27 -50 13 -30 -16 -53 -3 -43 24
9 22 27 20 89 -7z"/>
<path d="M1350 1097 c-43 -22 -50 -50 -50 -215 0 -115 4 -160 15 -181 28 -55
121 -63 166 -15 17 18 24 40 27 84 l4 60 -35 0 -36 0 -3 -52 c-3 -51 -4 -53
-33 -53 l-30 0 -3 151 c-2 129 0 153 14 164 25 22 48 0 52 -49 3 -40 4 -41 38
-41 32 0 34 2 34 34 0 100 -77 155 -160 113z"/>
<path d="M1522 1098 c3 -7 24 -75 47 -150 32 -108 41 -152 41 -212 l0 -76 35
0 35 0 0 73 c0 66 26 175 84 355 7 20 4 22 -27 22 l-35 0 -22 -92 c-12 -51
-24 -100 -27 -108 -3 -8 -17 32 -32 90 l-26 105 -39 3 c-29 3 -37 0 -34 -10z"/>
<path d="M1800 885 l0 -225 90 0 90 0 0 30 c0 30 -1 30 -55 30 l-55 0 0 195 0
195 -35 0 -35 0 0 -225z"/>
<path d="M2010 886 l0 -226 95 0 95 0 0 30 0 30 -60 0 -61 0 2 193 1 192 -36
3 -36 3 0 -225z"/>
<path d="M2260 1082 c-21 -22 -30 -42 -35 -83 -9 -76 0 -271 15 -298 28 -54
127 -62 172 -14 22 23 23 33 26 178 3 126 0 160 -13 188 -30 63 -116 78 -165
29z m98 -44 c13 -13 18 -271 6 -302 -9 -22 -51 -20 -64 3 -5 11 -10 78 -10
150 0 104 3 133 16 145 19 19 36 20 52 4z"/>
</g>
</svg>
